<?xml version="1.0" encoding="iso-8859-1"?>
<!-- Generator: Adobe Illustrator 19.0.0, SVG Export Plug-In . SVG Version: 6.00 Build 0)  -->
<svg version="1.1" id="Capa_1" xmlns="http://www.w3.org/2000/svg" xmlns:xlink="http://www.w3.org/1999/xlink" x="0px" y="0px"
	 viewBox="0 0 532 532" style="enable-background:new 0 0 512 512;" xml:space="preserve">
<path style="fill:#50C4DF;" d="M449.362,23.645c0-10.709-10.233-18.451-20.538-15.541L174.419,79.957
	c-11.676,3.298-19.738,13.953-19.738,26.086v275.459c-8.336-3.925-17.644-6.13-27.47-6.13c-35.662,0-64.572,28.91-64.572,64.572
	s28.91,64.572,64.572,64.572c35.263,0,63.906-28.272,64.542-63.384h0.03v-254.82l0,0l220.476-62.271l0,0v184.711
	c-8.337-3.925-17.644-6.13-27.47-6.13c-35.662,0-64.572,28.91-64.572,64.572s28.91,64.572,64.572,64.572
	c35.263,0,63.906-28.272,64.542-63.384h0.03V23.645H449.362z"/>
<g>
	<path style="fill:#1AA5C4;" d="M412.791,415.765c-35.662,0-64.572-28.91-64.572-64.572c0-18.163,7.51-34.564,19.581-46.296
		c-27.417,7.46-47.583,32.517-47.583,62.297c0,35.662,28.91,64.572,64.572,64.572c17.502,0,33.368-6.969,44.994-18.278
		C424.367,414.962,418.675,415.765,412.791,415.765z"/>
	<path style="fill:#1AA5C4;" d="M155.213,488.514c-35.662,0-64.572-28.91-64.572-64.572c0-18.163,7.509-34.564,19.581-46.296
		c-27.417,7.46-47.583,32.517-47.583,62.297c0,35.662,28.91,64.572,64.572,64.572c17.502,0,33.369-6.969,44.994-18.278
		C166.789,487.711,161.096,488.514,155.213,488.514z"/>
</g>
<path d="M391.126,26.53c0,0,39.651-11.199,39.735-11.223c5.426-1.532,11,2.695,11,8.322v344.066
	c-0.016,0.177-0.025,0.355-0.029,0.536c-0.272,15.022-6.326,29.103-17.046,39.647c-10.734,10.558-24.938,16.372-39.996,16.372
	c-31.47,0-57.071-25.603-57.071-57.071c0-31.47,25.603-57.071,57.071-57.071c8.473,0,16.639,1.821,24.27,5.414
	c4.93,2.321,10.699-1.369,10.699-6.784c0,0,0-184.156,0-184.71c0-4.884-4.848-8.543-9.54-7.219l-162.366,45.858
	c-3.986,1.126-6.305,5.27-5.179,9.257c1.126,3.986,5.269,6.305,9.257,5.179l152.827-43.165v163.973
	c-6.449-1.864-13.131-2.804-19.968-2.804c-39.741,0-72.072,32.332-72.072,72.072s32.332,72.072,72.072,72.072
	c19.019,0,36.959-7.343,50.516-20.678c13.368-13.148,20.989-30.653,21.509-49.358c0.031-0.278,0.047-0.561,0.047-0.847
	c0,0,0-344.48,0-344.738c0-15.433-15.223-26.955-30.078-22.759l-39.735,11.223c-3.986,1.126-6.305,5.27-5.179,9.257
	C382.995,25.337,387.14,27.655,391.126,26.53z"/>
<path d="M127.211,512c19.019,0,36.959-7.343,50.516-20.678c13.368-13.148,20.989-30.653,21.509-49.358
	c0.031-0.278,0.047-0.561,0.047-0.847V191.971c0,0,22.554-6.369,22.646-6.395c9.215-2.602,5.342-17.096-4.077-14.437l-28.108,7.938
	c-3.23,0.913-5.461,3.861-5.461,7.218v254.15c-0.016,0.177-0.025,0.355-0.028,0.535c-0.272,15.022-6.326,29.103-17.046,39.647
	C156.476,491.186,142.271,497,127.213,497c-31.47,0-57.071-25.603-57.071-57.071c0-31.47,25.603-57.071,57.071-57.071
	c8.474,0,16.642,1.822,24.273,5.415c4.901,2.308,10.697-1.391,10.697-6.785v-275.46c0-8.735,5.87-16.493,14.276-18.867
	l184.667-52.156c3.986-1.126,6.305-5.27,5.179-9.257s-5.268-6.305-9.257-5.179L172.38,72.723
	c-14.837,4.191-25.199,17.886-25.199,33.304v264.634c-6.449-1.864-13.131-2.804-19.969-2.804c-39.741,0-72.072,32.332-72.072,72.072
	C55.138,479.669,87.47,512,127.211,512z"/>
<g>
</g>
<g>
</g>
<g>
</g>
<g>
</g>
<g>
</g>
<g>
</g>
<g>
</g>
<g>
</g>
<g>
</g>
<g>
</g>
<g>
</g>
<g>
</g>
<g>
</g>
<g>
</g>
<g>
</g>
</svg>
