<?xml version="1.0" encoding="iso-8859-1"?>
<!-- Generator: Adobe Illustrator 19.0.0, SVG Export Plug-In . SVG Version: 6.00 Build 0)  -->
<svg version="1.1" id="Capa_1" xmlns="http://www.w3.org/2000/svg" xmlns:xlink="http://www.w3.org/1999/xlink" x="0px" y="0px"
	 viewBox="0 0 512 512" style="enable-background:new 0 0 512 512;" xml:space="preserve">
<path style="fill:#FD7FA9;" d="M482,96H30c-11.05,0-20,8.95-20,20v280c0,11.05,8.95,20,20,20h452c11.05,0,20-8.95,20-20V116
	C502,104.95,493.05,96,482,96z"/>
<path style="fill:#FFFFFF;" d="M76,256v160c110.395,0,240.718,0,360,0V256H76z"/>
<g>
	<path style="fill:#414666;" d="M156,256v80c-13.99,0-26.01,0-40,0v-80H156z"/>
	<polygon style="fill:#414666;" points="236,256 236,336 216,336 196,336 196,256 	"/>
	<path style="fill:#414666;" d="M316,256v80c-13.99,0-26.01,0-40,0v-80H316z"/>
	<path style="fill:#414666;" d="M396,256v80c-13.99,0-26.01,0-40,0v-80H396z"/>
</g>
<rect x="379" y="136" style="fill:#FFFFFF;" width="80" height="60"/>
<path d="M176,146c-5.52,0-10,4.48-10,10s4.48,10,10,10s10-4.48,10-10S181.52,146,176,146z"/>
<path d="M176,186c-5.52,0-10,4.48-10,10s4.48,10,10,10s10-4.48,10-10S181.52,186,176,186z"/>
<path d="M482,86H30C13.458,86,0,99.458,0,116v280c0,16.542,13.458,30,30,30c29.055,0,432.236,0,452,0c16.542,0,30-13.458,30-30V116
	C512,99.458,498.542,86,482,86z M126,406H86V266h20v70c0,5.523,4.477,10,10,10h10V406z M206,406h-60v-60h10c5.523,0,10-4.477,10-10
	v-70h20v70c0,5.523,4.477,10,10,10h10V406z M126,326v-60h20v60H126z M286,406h-60v-60h10c5.523,0,10-4.477,10-10v-70h20v70
	c0,5.523,4.477,10,10,10h10V406z M206,326v-60h20v60H206z M366,406h-60v-60h10c5.523,0,10-4.477,10-10v-70h20v70
	c0,5.523,4.477,10,10,10h10V406z M286,326v-60h20v60H286z M426,406h-40v-60h10c5.523,0,10-4.477,10-10v-70h20V406z M366,326v-60h20
	v60H366z M492,396c0,5.514-4.486,10-10,10h-36V256c0-5.523-4.477-10-10-10c-109.732,0-250.783,0-360,0c-5.523,0-10,4.477-10,10v150
	H30c-5.514,0-10-4.486-10-10V116c0-5.514,4.486-10,10-10h452c5.514,0,10,4.486,10,10V396z"/>
<path d="M459,126h-80c-5.523,0-10,4.477-10,10v60c0,5.523,4.477,10,10,10h80c5.523,0,10-4.477,10-10v-60
	C469,130.477,464.523,126,459,126z M449,186h-60v-40h60V186z"/>
<path d="M276,166h-10v-30c0-5.523-4.477-10-10-10s-10,4.477-10,10v30h-10c-5.523,0-10,4.477-10,10s4.477,10,10,10h10v10
	c0,5.523,4.477,10,10,10c5.523,0,10-4.477,10-10v-10h10c5.523,0,10-4.477,10-10S281.523,166,276,166z"/>
<path d="M336,146h-10v-10c0-5.523-4.477-10-10-10s-10,4.477-10,10v10h-10c-5.523,0-10,4.477-10,10s4.477,10,10,10h10v30
	c0,5.523,4.477,10,10,10s10-4.477,10-10v-30h10c5.523,0,10-4.477,10-10S341.523,146,336,146z"/>
<path d="M73,146H53c-5.523,0-10,4.477-10,10s4.477,10,10,10h20c5.523,0,10-4.477,10-10S78.523,146,73,146z"/>
<path d="M136,146h-20c-5.523,0-10,4.477-10,10s4.477,10,10,10h20c5.523,0,10-4.477,10-10S141.523,146,136,146z"/>
<path d="M73,186H53c-5.523,0-10,4.477-10,10s4.477,10,10,10h20c5.523,0,10-4.477,10-10S78.523,186,73,186z"/>
<path d="M136,186h-20c-5.523,0-10,4.477-10,10s4.477,10,10,10h20c5.523,0,10-4.477,10-10S141.523,186,136,186z"/>
<g>
</g>
<g>
</g>
<g>
</g>
<g>
</g>
<g>
</g>
<g>
</g>
<g>
</g>
<g>
</g>
<g>
</g>
<g>
</g>
<g>
</g>
<g>
</g>
<g>
</g>
<g>
</g>
<g>
</g>
</svg>
